<svg width="35" height="20" viewBox="0 0 35 20" fill="none" xmlns="http://www.w3.org/2000/svg">
<g filter="url(#filter0_d_202_17)">
<rect width="27" height="12" transform="translate(4)" fill="#DCDCDC"/>
<path d="M6.19069 7.02662C6.21012 7.37356 6.29199 7.65527 6.43632 7.87176C6.71109 8.27698 7.19542 8.47959 7.88929 8.47959C8.20014 8.47959 8.48324 8.43519 8.73859 8.34637C9.23263 8.17429 9.47965 7.86621 9.47965 7.42213C9.47965 7.08907 9.37557 6.85177 9.1674 6.71022C8.95647 6.57144 8.62618 6.45071 8.17655 6.34802L7.34807 6.16067C6.80685 6.03855 6.42383 5.90394 6.19901 5.75684C5.81044 5.50149 5.61616 5.11986 5.61616 4.61194C5.61616 4.0624 5.80628 3.61138 6.18652 3.25889C6.56677 2.9064 7.10521 2.73016 7.80186 2.73016C8.443 2.73016 8.987 2.88559 9.43385 3.19644C9.88348 3.50452 10.1083 3.99856 10.1083 4.67856H9.32977C9.28814 4.35105 9.19932 4.09987 9.06332 3.92501C8.81075 3.60583 8.38194 3.44624 7.77688 3.44624C7.28839 3.44624 6.93729 3.54893 6.72358 3.75432C6.50987 3.9597 6.40301 4.1984 6.40301 4.47039C6.40301 4.77015 6.52791 4.98941 6.7777 5.12819C6.94146 5.217 7.31199 5.32802 7.88929 5.46125L8.74692 5.65692C9.16046 5.75128 9.47965 5.88035 9.70446 6.0441C10.093 6.32998 10.2873 6.74491 10.2873 7.28891C10.2873 7.96613 10.0403 8.45045 9.54626 8.74188C9.055 9.03331 8.48324 9.17902 7.831 9.17902C7.07052 9.17902 6.47517 8.98473 6.04497 8.59617C5.61477 8.21037 5.40383 7.68719 5.41216 7.02662H6.19069ZM12.1554 4.44125C12.4719 4.44125 12.7785 4.51619 13.0755 4.66607C13.3725 4.81317 13.5987 5.00468 13.7541 5.24059C13.904 5.46541 14.0039 5.72769 14.0539 6.02745C14.0983 6.23283 14.1205 6.56034 14.1205 7.00997H10.8523C10.8662 7.46238 10.9731 7.82597 11.1729 8.10074C11.3728 8.37274 11.6822 8.50874 12.1013 8.50874C12.4927 8.50874 12.8049 8.37968 13.0381 8.12156C13.1713 7.97168 13.2656 7.79821 13.3212 7.60115H14.058C14.0386 7.76491 13.9734 7.94809 13.8624 8.1507C13.7541 8.35053 13.632 8.51429 13.496 8.64196C13.2684 8.864 12.9867 9.01388 12.6509 9.09159C12.4705 9.136 12.2665 9.1582 12.0389 9.1582C11.4838 9.1582 11.0133 8.95698 10.6275 8.55453C10.2417 8.14931 10.0488 7.58311 10.0488 6.85593C10.0488 6.13985 10.2431 5.55839 10.6317 5.11153C11.0203 4.66468 11.5282 4.44125 12.1554 4.44125ZM13.3503 6.41463C13.3198 6.0899 13.249 5.83039 13.138 5.6361C12.9326 5.27529 12.5898 5.09488 12.1096 5.09488C11.7655 5.09488 11.4768 5.21978 11.2437 5.46957C11.0106 5.71659 10.887 6.03161 10.8732 6.41463H13.3503ZM14.1068 4.54117H14.8188V5.17398C15.0297 4.91309 15.2531 4.72574 15.489 4.61194C15.725 4.49815 15.9872 4.44125 16.2759 4.44125C16.9087 4.44125 17.3361 4.6619 17.5582 5.10321C17.6803 5.34468 17.7413 5.69022 17.7413 6.13985V9H16.9795V6.18981C16.9795 5.91781 16.9392 5.69855 16.8587 5.53202C16.7255 5.25447 16.484 5.1157 16.1343 5.1157C15.9567 5.1157 15.811 5.13374 15.6972 5.16982C15.4918 5.23088 15.3114 5.353 15.156 5.53618C15.0311 5.68329 14.9492 5.83594 14.9103 5.99414C14.8743 6.14957 14.8562 6.373 14.8562 6.66442V9H14.1068V4.54117ZM18.0649 3.29636H18.8226V4.54117H19.5345V5.15317H18.8226V8.06327C18.8226 8.2187 18.8754 8.32278 18.9808 8.37551C19.0391 8.40604 19.1363 8.42131 19.2723 8.42131C19.3083 8.42131 19.3472 8.42131 19.3888 8.42131C19.4305 8.41853 19.479 8.41437 19.5345 8.40882V9C19.4485 9.02498 19.3583 9.04302 19.2639 9.05412C19.1723 9.06522 19.0724 9.07078 18.9642 9.07078C18.6145 9.07078 18.3772 8.98196 18.2523 8.80433C18.1274 8.62392 18.0649 8.39078 18.0649 8.1049V5.15317H17.4612V4.54117H18.0649V3.29636ZM19.3502 4.56199H20.1121V9H19.3502V4.56199ZM19.3502 2.8842H20.1121V3.7335H19.3502V2.8842ZM20.3107 4.54117H21.0226V5.17398C21.2336 4.91309 21.457 4.72574 21.6929 4.61194C21.9288 4.49815 22.1911 4.44125 22.4798 4.44125C23.1126 4.44125 23.54 4.6619 23.7621 5.10321C23.8842 5.34468 23.9452 5.69022 23.9452 6.13985V9H23.1834V6.18981C23.1834 5.91781 23.1431 5.69855 23.0626 5.53202C22.9294 5.25447 22.6879 5.1157 22.3382 5.1157C22.1606 5.1157 22.0149 5.13374 21.9011 5.16982C21.6957 5.23088 21.5153 5.353 21.3599 5.53618C21.235 5.68329 21.1531 5.83594 21.1142 5.99414C21.0782 6.14957 21.0601 6.373 21.0601 6.66442V9H20.3107V4.54117ZM25.9757 4.44125C26.2921 4.44125 26.5988 4.51619 26.8958 4.66607C27.1928 4.81317 27.419 5.00468 27.5744 5.24059C27.7243 5.46541 27.8242 5.72769 27.8742 6.02745C27.9186 6.23283 27.9408 6.56034 27.9408 7.00997H24.6726C24.6865 7.46238 24.7934 7.82597 24.9932 8.10074C25.193 8.37274 25.5025 8.50874 25.9216 8.50874C26.313 8.50874 26.6252 8.37968 26.8583 8.12156C26.9916 7.97168 27.0859 7.79821 27.1414 7.60115H27.8783C27.8589 7.76491 27.7937 7.94809 27.6827 8.1507C27.5744 8.35053 27.4523 8.51429 27.3163 8.64196C27.0887 8.864 26.807 9.01388 26.4712 9.09159C26.2908 9.136 26.0868 9.1582 25.8592 9.1582C25.3041 9.1582 24.8336 8.95698 24.4478 8.55453C24.062 8.14931 23.8691 7.58311 23.8691 6.85593C23.8691 6.13985 24.0634 5.55839 24.452 5.11153C24.8406 4.66468 25.3485 4.44125 25.9757 4.44125ZM27.1706 6.41463C27.1401 6.0899 27.0693 5.83039 26.9583 5.6361C26.7529 5.27529 26.4101 5.09488 25.9299 5.09488C25.5858 5.09488 25.2971 5.21978 25.064 5.46957C24.8308 5.71659 24.7073 6.03161 24.6935 6.41463H27.1706ZM27.9479 2.8842H28.6973V9H27.9479V2.8842Z" fill="black"/>
<path d="M12.1832 11V10.28H12.6472V10.338H12.2512V10.598H12.6112V10.656H12.2512V11H12.1832ZM12.6759 11V10.28H12.7359V11H12.6759ZM13.1935 10.705C13.1935 10.6797 13.1899 10.656 13.1825 10.634C13.1759 10.6113 13.1655 10.592 13.1515 10.576C13.1382 10.5593 13.1212 10.5463 13.1005 10.537C13.0799 10.527 13.0562 10.522 13.0295 10.522C13.0029 10.522 12.9792 10.527 12.9585 10.537C12.9385 10.547 12.9212 10.5603 12.9065 10.577C12.8925 10.5937 12.8812 10.613 12.8725 10.635C12.8639 10.657 12.8582 10.6803 12.8555 10.705H13.1935ZM12.8555 10.755C12.8555 10.783 12.8592 10.8097 12.8665 10.835C12.8739 10.8597 12.8845 10.8813 12.8985 10.9C12.9132 10.918 12.9315 10.9327 12.9535 10.944C12.9755 10.9547 13.0009 10.96 13.0295 10.96C13.0689 10.96 13.1025 10.9497 13.1305 10.929C13.1585 10.9083 13.1772 10.879 13.1865 10.841H13.2535C13.2462 10.8657 13.2365 10.8887 13.2245 10.91C13.2125 10.9307 13.1975 10.949 13.1795 10.965C13.1615 10.9803 13.1402 10.9923 13.1155 11.001C13.0909 11.0097 13.0622 11.014 13.0295 11.014C12.9882 11.014 12.9525 11.007 12.9225 10.993C12.8925 10.979 12.8679 10.96 12.8485 10.936C12.8292 10.9113 12.8149 10.8827 12.8055 10.85C12.7962 10.8167 12.7915 10.781 12.7915 10.743C12.7915 10.705 12.7969 10.6693 12.8075 10.636C12.8189 10.6027 12.8345 10.5737 12.8545 10.549C12.8752 10.5237 12.9002 10.504 12.9295 10.49C12.9589 10.4753 12.9922 10.468 13.0295 10.468C13.1009 10.468 13.1569 10.4927 13.1975 10.542C13.2382 10.5907 13.2582 10.6617 13.2575 10.755H12.8555ZM13.6792 10.705C13.6792 10.6797 13.6755 10.656 13.6682 10.634C13.6615 10.6113 13.6512 10.592 13.6372 10.576C13.6239 10.5593 13.6069 10.5463 13.5862 10.537C13.5655 10.527 13.5419 10.522 13.5152 10.522C13.4885 10.522 13.4649 10.527 13.4442 10.537C13.4242 10.547 13.4069 10.5603 13.3922 10.577C13.3782 10.5937 13.3669 10.613 13.3582 10.635C13.3495 10.657 13.3439 10.6803 13.3412 10.705H13.6792ZM13.3412 10.755C13.3412 10.783 13.3449 10.8097 13.3522 10.835C13.3595 10.8597 13.3702 10.8813 13.3842 10.9C13.3989 10.918 13.4172 10.9327 13.4392 10.944C13.4612 10.9547 13.4865 10.96 13.5152 10.96C13.5545 10.96 13.5882 10.9497 13.6162 10.929C13.6442 10.9083 13.6629 10.879 13.6722 10.841H13.7392C13.7319 10.8657 13.7222 10.8887 13.7102 10.91C13.6982 10.9307 13.6832 10.949 13.6652 10.965C13.6472 10.9803 13.6259 10.9923 13.6012 11.001C13.5765 11.0097 13.5479 11.014 13.5152 11.014C13.4739 11.014 13.4382 11.007 13.4082 10.993C13.3782 10.979 13.3535 10.96 13.3342 10.936C13.3149 10.9113 13.3005 10.8827 13.2912 10.85C13.2819 10.8167 13.2772 10.781 13.2772 10.743C13.2772 10.705 13.2825 10.6693 13.2932 10.636C13.3045 10.6027 13.3202 10.5737 13.3402 10.549C13.3609 10.5237 13.3859 10.504 13.4152 10.49C13.4445 10.4753 13.4779 10.468 13.5152 10.468C13.5865 10.468 13.6425 10.4927 13.6832 10.542C13.7239 10.5907 13.7439 10.6617 13.7432 10.755H13.3412ZM13.9719 11.002C13.9645 11.0033 13.9549 11.0057 13.9429 11.009C13.9309 11.0123 13.9175 11.014 13.9029 11.014C13.8729 11.014 13.8499 11.0067 13.8339 10.992C13.8185 10.9767 13.8109 10.9497 13.8109 10.911V10.532H13.7379V10.482H13.8109V10.338H13.8709V10.482H13.9679V10.532H13.8709V10.887C13.8709 10.8997 13.8712 10.9107 13.8719 10.92C13.8725 10.9293 13.8745 10.937 13.8779 10.943C13.8812 10.949 13.8862 10.9533 13.8929 10.956C13.9002 10.9587 13.9102 10.96 13.9229 10.96C13.9309 10.96 13.9389 10.9593 13.9469 10.958C13.9555 10.9567 13.9639 10.955 13.9719 10.953V11.002ZM14.2125 11V10.28H14.3165L14.5525 10.915H14.5545L14.7865 10.28H14.8895V11H14.8215V10.358H14.8195L14.5835 11H14.5195L14.2825 10.358H14.2805V11H14.2125ZM15.3085 10.728C15.2832 10.7387 15.2575 10.7457 15.2315 10.749C15.2055 10.7523 15.1795 10.755 15.1535 10.757C15.1075 10.7603 15.0715 10.7707 15.0455 10.788C15.0202 10.8053 15.0075 10.8317 15.0075 10.867C15.0075 10.883 15.0105 10.897 15.0165 10.909C15.0232 10.9203 15.0315 10.93 15.0415 10.938C15.0522 10.9453 15.0642 10.951 15.0775 10.955C15.0915 10.9583 15.1055 10.96 15.1195 10.96C15.1435 10.96 15.1669 10.957 15.1895 10.951C15.2122 10.945 15.2322 10.936 15.2495 10.924C15.2675 10.9113 15.2819 10.8957 15.2925 10.877C15.3032 10.8577 15.3085 10.835 15.3085 10.809V10.728ZM15.2075 10.698C15.2189 10.6967 15.2322 10.6947 15.2475 10.692C15.2635 10.6893 15.2765 10.6857 15.2865 10.681C15.2965 10.6763 15.3025 10.6687 15.3045 10.658C15.3072 10.6467 15.3085 10.6363 15.3085 10.627C15.3085 10.5963 15.2985 10.5713 15.2785 10.552C15.2592 10.532 15.2262 10.522 15.1795 10.522C15.1589 10.522 15.1399 10.524 15.1225 10.528C15.1052 10.5313 15.0899 10.5377 15.0765 10.547C15.0639 10.5557 15.0532 10.5677 15.0445 10.583C15.0365 10.5977 15.0312 10.6163 15.0285 10.639H14.9675C14.9695 10.6083 14.9765 10.5823 14.9885 10.561C15.0005 10.539 15.0159 10.5213 15.0345 10.508C15.0539 10.494 15.0759 10.484 15.1005 10.478C15.1259 10.4713 15.1525 10.468 15.1805 10.468C15.2065 10.468 15.2309 10.471 15.2535 10.477C15.2769 10.4823 15.2969 10.4913 15.3135 10.504C15.3309 10.516 15.3442 10.5323 15.3535 10.553C15.3635 10.5737 15.3685 10.599 15.3685 10.629V10.911C15.3685 10.9343 15.3725 10.9493 15.3805 10.956C15.3892 10.962 15.4062 10.9603 15.4315 10.951V10.998C15.4269 10.9993 15.4199 11.0013 15.4105 11.004C15.4019 11.0067 15.3932 11.008 15.3845 11.008C15.3752 11.008 15.3662 11.007 15.3575 11.005C15.3475 11.0037 15.3395 11.0007 15.3335 10.996C15.3275 10.9907 15.3225 10.9847 15.3185 10.978C15.3152 10.9707 15.3129 10.963 15.3115 10.955C15.3102 10.9463 15.3095 10.9373 15.3095 10.928C15.2842 10.956 15.2552 10.9773 15.2225 10.992C15.1899 11.0067 15.1545 11.014 15.1165 11.014C15.0939 11.014 15.0719 11.011 15.0505 11.005C15.0299 10.999 15.0115 10.9897 14.9955 10.977C14.9795 10.9643 14.9669 10.949 14.9575 10.931C14.9482 10.9123 14.9435 10.8903 14.9435 10.865C14.9435 10.777 15.0039 10.725 15.1245 10.709L15.2075 10.698ZM15.5152 11H15.4552V10.482H15.5152V10.554C15.5392 10.5287 15.5639 10.508 15.5892 10.492C15.6152 10.476 15.6462 10.468 15.6822 10.468C15.7142 10.468 15.7439 10.4737 15.7712 10.485C15.7985 10.4957 15.8215 10.5147 15.8402 10.542C15.8529 10.5607 15.8602 10.58 15.8622 10.6C15.8649 10.6193 15.8662 10.6397 15.8662 10.661V11H15.8062V10.662C15.8062 10.6153 15.7959 10.5803 15.7752 10.557C15.7545 10.5337 15.7202 10.522 15.6722 10.522C15.6535 10.522 15.6365 10.525 15.6212 10.531C15.6059 10.5363 15.5919 10.5437 15.5792 10.553C15.5672 10.5623 15.5569 10.573 15.5482 10.585C15.5395 10.597 15.5329 10.6097 15.5282 10.623C15.5222 10.6397 15.5185 10.6557 15.5172 10.671C15.5159 10.6863 15.5152 10.703 15.5152 10.721V11ZM16.2798 10.728C16.2545 10.7387 16.2288 10.7457 16.2028 10.749C16.1768 10.7523 16.1508 10.755 16.1248 10.757C16.0788 10.7603 16.0428 10.7707 16.0168 10.788C15.9915 10.8053 15.9788 10.8317 15.9788 10.867C15.9788 10.883 15.9818 10.897 15.9878 10.909C15.9945 10.9203 16.0028 10.93 16.0128 10.938C16.0235 10.9453 16.0355 10.951 16.0488 10.955C16.0628 10.9583 16.0768 10.96 16.0908 10.96C16.1148 10.96 16.1382 10.957 16.1608 10.951C16.1835 10.945 16.2035 10.936 16.2208 10.924C16.2388 10.9113 16.2532 10.8957 16.2638 10.877C16.2745 10.8577 16.2798 10.835 16.2798 10.809V10.728ZM16.1788 10.698C16.1902 10.6967 16.2035 10.6947 16.2188 10.692C16.2348 10.6893 16.2478 10.6857 16.2578 10.681C16.2678 10.6763 16.2738 10.6687 16.2758 10.658C16.2785 10.6467 16.2798 10.6363 16.2798 10.627C16.2798 10.5963 16.2698 10.5713 16.2498 10.552C16.2305 10.532 16.1975 10.522 16.1508 10.522C16.1302 10.522 16.1112 10.524 16.0938 10.528C16.0765 10.5313 16.0612 10.5377 16.0478 10.547C16.0352 10.5557 16.0245 10.5677 16.0158 10.583C16.0078 10.5977 16.0025 10.6163 15.9998 10.639H15.9388C15.9408 10.6083 15.9478 10.5823 15.9598 10.561C15.9718 10.539 15.9872 10.5213 16.0058 10.508C16.0252 10.494 16.0472 10.484 16.0718 10.478C16.0972 10.4713 16.1238 10.468 16.1518 10.468C16.1778 10.468 16.2022 10.471 16.2248 10.477C16.2482 10.4823 16.2682 10.4913 16.2848 10.504C16.3022 10.516 16.3155 10.5323 16.3248 10.553C16.3348 10.5737 16.3398 10.599 16.3398 10.629V10.911C16.3398 10.9343 16.3438 10.9493 16.3518 10.956C16.3605 10.962 16.3775 10.9603 16.4028 10.951V10.998C16.3982 10.9993 16.3912 11.0013 16.3818 11.004C16.3732 11.0067 16.3645 11.008 16.3558 11.008C16.3465 11.008 16.3375 11.007 16.3288 11.005C16.3188 11.0037 16.3108 11.0007 16.3048 10.996C16.2988 10.9907 16.2938 10.9847 16.2898 10.978C16.2865 10.9707 16.2842 10.963 16.2828 10.955C16.2815 10.9463 16.2808 10.9373 16.2808 10.928C16.2555 10.956 16.2265 10.9773 16.1938 10.992C16.1612 11.0067 16.1258 11.014 16.0878 11.014C16.0652 11.014 16.0432 11.011 16.0218 11.005C16.0012 10.999 15.9828 10.9897 15.9668 10.977C15.9508 10.9643 15.9382 10.949 15.9288 10.931C15.9195 10.9123 15.9148 10.8903 15.9148 10.865C15.9148 10.777 15.9752 10.725 16.0958 10.709L16.1788 10.698ZM16.8265 10.743C16.8265 10.7117 16.8225 10.6827 16.8145 10.656C16.8072 10.6287 16.7962 10.6053 16.7815 10.586C16.7668 10.566 16.7485 10.5503 16.7265 10.539C16.7045 10.5277 16.6795 10.522 16.6515 10.522C16.6262 10.522 16.6028 10.5267 16.5815 10.536C16.5602 10.5447 16.5415 10.5577 16.5255 10.575C16.5095 10.5923 16.4968 10.6137 16.4875 10.639C16.4788 10.6637 16.4745 10.6923 16.4745 10.725C16.4732 10.7577 16.4758 10.7883 16.4825 10.817C16.4892 10.845 16.4998 10.8697 16.5145 10.891C16.5292 10.9123 16.5478 10.9293 16.5705 10.942C16.5932 10.954 16.6202 10.96 16.6515 10.96C16.6788 10.96 16.7032 10.9543 16.7245 10.943C16.7465 10.931 16.7648 10.9153 16.7795 10.896C16.7948 10.876 16.8065 10.853 16.8145 10.827C16.8225 10.8003 16.8265 10.7723 16.8265 10.743ZM16.8265 10.482H16.8865V10.95C16.8865 10.9847 16.8828 11.0177 16.8755 11.049C16.8688 11.081 16.8565 11.109 16.8385 11.133C16.8205 11.157 16.7958 11.176 16.7645 11.19C16.7332 11.2047 16.6928 11.212 16.6435 11.212C16.6055 11.212 16.5728 11.207 16.5455 11.197C16.5182 11.1877 16.4958 11.1757 16.4785 11.161C16.4612 11.1463 16.4478 11.13 16.4385 11.112C16.4298 11.0947 16.4252 11.0783 16.4245 11.063H16.4885C16.4932 11.0823 16.5005 11.098 16.5105 11.11C16.5205 11.1227 16.5322 11.1323 16.5455 11.139C16.5595 11.1463 16.5748 11.1513 16.5915 11.154C16.6082 11.1567 16.6255 11.158 16.6435 11.158C16.6842 11.158 16.7168 11.151 16.7415 11.137C16.7662 11.123 16.7848 11.1047 16.7975 11.082C16.8102 11.0593 16.8182 11.0337 16.8215 11.005C16.8255 10.9763 16.8272 10.947 16.8265 10.917C16.8072 10.949 16.7805 10.9733 16.7465 10.99C16.7132 11.006 16.6782 11.014 16.6415 11.014C16.6022 11.014 16.5678 11.0067 16.5385 10.992C16.5098 10.9767 16.4858 10.9567 16.4665 10.932C16.4478 10.9067 16.4338 10.8773 16.4245 10.844C16.4152 10.8107 16.4105 10.776 16.4105 10.74C16.4105 10.702 16.4148 10.6663 16.4235 10.633C16.4322 10.5997 16.4458 10.571 16.4645 10.547C16.4838 10.5223 16.5082 10.503 16.5375 10.489C16.5668 10.475 16.6025 10.468 16.6445 10.468C16.6612 10.468 16.6782 10.4703 16.6955 10.475C16.7128 10.4797 16.7295 10.4863 16.7455 10.495C16.7622 10.5037 16.7772 10.5147 16.7905 10.528C16.8045 10.5413 16.8158 10.5563 16.8245 10.573H16.8265V10.482ZM17.3428 10.705C17.3428 10.6797 17.3392 10.656 17.3318 10.634C17.3252 10.6113 17.3148 10.592 17.3008 10.576C17.2875 10.5593 17.2705 10.5463 17.2498 10.537C17.2292 10.527 17.2055 10.522 17.1788 10.522C17.1522 10.522 17.1285 10.527 17.1078 10.537C17.0878 10.547 17.0705 10.5603 17.0558 10.577C17.0418 10.5937 17.0305 10.613 17.0218 10.635C17.0132 10.657 17.0075 10.6803 17.0048 10.705H17.3428ZM17.0048 10.755C17.0048 10.783 17.0085 10.8097 17.0158 10.835C17.0232 10.8597 17.0338 10.8813 17.0478 10.9C17.0625 10.918 17.0808 10.9327 17.1028 10.944C17.1248 10.9547 17.1502 10.96 17.1788 10.96C17.2182 10.96 17.2518 10.9497 17.2798 10.929C17.3078 10.9083 17.3265 10.879 17.3358 10.841H17.4028C17.3955 10.8657 17.3858 10.8887 17.3738 10.91C17.3618 10.9307 17.3468 10.949 17.3288 10.965C17.3108 10.9803 17.2895 10.9923 17.2648 11.001C17.2402 11.0097 17.2115 11.014 17.1788 11.014C17.1375 11.014 17.1018 11.007 17.0718 10.993C17.0418 10.979 17.0172 10.96 16.9978 10.936C16.9785 10.9113 16.9642 10.8827 16.9548 10.85C16.9455 10.8167 16.9408 10.781 16.9408 10.743C16.9408 10.705 16.9462 10.6693 16.9568 10.636C16.9682 10.6027 16.9838 10.5737 17.0038 10.549C17.0245 10.5237 17.0495 10.504 17.0788 10.49C17.1082 10.4753 17.1415 10.468 17.1788 10.468C17.2502 10.468 17.3062 10.4927 17.3468 10.542C17.3875 10.5907 17.4075 10.6617 17.4068 10.755H17.0048ZM17.5055 11H17.4455V10.482H17.5055V10.56H17.5075C17.5228 10.53 17.5448 10.5073 17.5735 10.492C17.6022 10.476 17.6335 10.468 17.6675 10.468C17.6915 10.468 17.7118 10.4707 17.7285 10.476C17.7452 10.4813 17.7592 10.4887 17.7705 10.498C17.7825 10.5067 17.7922 10.517 17.7995 10.529C17.8075 10.541 17.8142 10.554 17.8195 10.568C17.8368 10.534 17.8598 10.509 17.8885 10.493C17.9178 10.4763 17.9512 10.468 17.9885 10.468C18.0238 10.468 18.0518 10.474 18.0725 10.486C18.0938 10.4973 18.1102 10.5127 18.1215 10.532C18.1328 10.5507 18.1402 10.5723 18.1435 10.597C18.1475 10.6217 18.1495 10.647 18.1495 10.673V11H18.0895V10.642C18.0895 10.6047 18.0815 10.5753 18.0655 10.554C18.0502 10.5327 18.0212 10.522 17.9785 10.522C17.9565 10.522 17.9352 10.527 17.9145 10.537C17.8945 10.5463 17.8768 10.561 17.8615 10.581C17.8548 10.5897 17.8492 10.6 17.8445 10.612C17.8405 10.6233 17.8372 10.6353 17.8345 10.648C17.8318 10.6607 17.8298 10.6733 17.8285 10.686C17.8278 10.6987 17.8275 10.7103 17.8275 10.721V11H17.7675V10.642C17.7675 10.6047 17.7595 10.5753 17.7435 10.554C17.7282 10.5327 17.6992 10.522 17.6565 10.522C17.6345 10.522 17.6132 10.527 17.5925 10.537C17.5725 10.5463 17.5548 10.561 17.5395 10.581C17.5328 10.5897 17.5272 10.6 17.5225 10.612C17.5185 10.6233 17.5152 10.6353 17.5125 10.648C17.5098 10.6607 17.5078 10.6733 17.5065 10.686C17.5058 10.6987 17.5055 10.7103 17.5055 10.721V11ZM18.5915 10.705C18.5915 10.6797 18.5878 10.656 18.5805 10.634C18.5738 10.6113 18.5635 10.592 18.5495 10.576C18.5362 10.5593 18.5192 10.5463 18.4985 10.537C18.4778 10.527 18.4542 10.522 18.4275 10.522C18.4008 10.522 18.3772 10.527 18.3565 10.537C18.3365 10.547 18.3192 10.5603 18.3045 10.577C18.2905 10.5937 18.2792 10.613 18.2705 10.635C18.2618 10.657 18.2562 10.6803 18.2535 10.705H18.5915ZM18.2535 10.755C18.2535 10.783 18.2572 10.8097 18.2645 10.835C18.2718 10.8597 18.2825 10.8813 18.2965 10.9C18.3112 10.918 18.3295 10.9327 18.3515 10.944C18.3735 10.9547 18.3988 10.96 18.4275 10.96C18.4668 10.96 18.5005 10.9497 18.5285 10.929C18.5565 10.9083 18.5752 10.879 18.5845 10.841H18.6515C18.6442 10.8657 18.6345 10.8887 18.6225 10.91C18.6105 10.9307 18.5955 10.949 18.5775 10.965C18.5595 10.9803 18.5382 10.9923 18.5135 11.001C18.4888 11.0097 18.4602 11.014 18.4275 11.014C18.3862 11.014 18.3505 11.007 18.3205 10.993C18.2905 10.979 18.2658 10.96 18.2465 10.936C18.2272 10.9113 18.2128 10.8827 18.2035 10.85C18.1942 10.8167 18.1895 10.781 18.1895 10.743C18.1895 10.705 18.1948 10.6693 18.2055 10.636C18.2168 10.6027 18.2325 10.5737 18.2525 10.549C18.2732 10.5237 18.2982 10.504 18.3275 10.49C18.3568 10.4753 18.3902 10.468 18.4275 10.468C18.4988 10.468 18.5548 10.4927 18.5955 10.542C18.6362 10.5907 18.6562 10.6617 18.6555 10.755H18.2535ZM18.7622 11H18.7022V10.482H18.7622V10.554C18.7862 10.5287 18.8108 10.508 18.8362 10.492C18.8622 10.476 18.8932 10.468 18.9292 10.468C18.9612 10.468 18.9908 10.4737 19.0182 10.485C19.0455 10.4957 19.0685 10.5147 19.0872 10.542C19.0998 10.5607 19.1072 10.58 19.1092 10.6C19.1118 10.6193 19.1132 10.6397 19.1132 10.661V11H19.0532V10.662C19.0532 10.6153 19.0428 10.5803 19.0222 10.557C19.0015 10.5337 18.9672 10.522 18.9192 10.522C18.9005 10.522 18.8835 10.525 18.8682 10.531C18.8528 10.5363 18.8388 10.5437 18.8262 10.553C18.8142 10.5623 18.8038 10.573 18.7952 10.585C18.7865 10.597 18.7798 10.6097 18.7752 10.623C18.7692 10.6397 18.7655 10.6557 18.7642 10.671C18.7628 10.6863 18.7622 10.703 18.7622 10.721V11ZM19.3698 11.002C19.3625 11.0033 19.3528 11.0057 19.3408 11.009C19.3288 11.0123 19.3155 11.014 19.3008 11.014C19.2708 11.014 19.2478 11.0067 19.2318 10.992C19.2165 10.9767 19.2088 10.9497 19.2088 10.911V10.532H19.1358V10.482H19.2088V10.338H19.2688V10.482H19.3658V10.532H19.2688V10.887C19.2688 10.8997 19.2692 10.9107 19.2698 10.92C19.2705 10.9293 19.2725 10.937 19.2758 10.943C19.2792 10.949 19.2842 10.9533 19.2908 10.956C19.2982 10.9587 19.3082 10.96 19.3208 10.96C19.3288 10.96 19.3368 10.9593 19.3448 10.958C19.3535 10.9567 19.3618 10.955 19.3698 10.953V11.002ZM19.6415 10.785C19.6441 10.817 19.6511 10.8443 19.6625 10.867C19.6745 10.889 19.6895 10.907 19.7075 10.921C19.7261 10.935 19.7475 10.9453 19.7715 10.952C19.7955 10.958 19.8211 10.961 19.8485 10.961C19.8805 10.961 19.9081 10.957 19.9315 10.949C19.9548 10.941 19.9738 10.9303 19.9885 10.917C20.0031 10.903 20.0138 10.887 20.0205 10.869C20.0278 10.851 20.0315 10.832 20.0315 10.812C20.0315 10.784 20.0251 10.7613 20.0125 10.744C19.9998 10.7267 19.9831 10.7127 19.9625 10.702C19.9425 10.6907 19.9191 10.6817 19.8925 10.675C19.8665 10.6683 19.8395 10.662 19.8115 10.656C19.7841 10.6493 19.7571 10.6417 19.7305 10.633C19.7045 10.6243 19.6811 10.6127 19.6605 10.598C19.6405 10.5833 19.6241 10.5647 19.6115 10.542C19.5988 10.5187 19.5925 10.4893 19.5925 10.454C19.5925 10.4293 19.5975 10.4053 19.6075 10.382C19.6181 10.3587 19.6335 10.338 19.6535 10.32C19.6741 10.302 19.6998 10.2877 19.7305 10.277C19.7611 10.2663 19.7965 10.261 19.8365 10.261C19.8771 10.261 19.9125 10.2667 19.9425 10.278C19.9731 10.2893 19.9985 10.305 20.0185 10.325C20.0385 10.3443 20.0535 10.367 20.0635 10.393C20.0735 10.419 20.0785 10.4467 20.0785 10.476H20.0135C20.0135 10.4487 20.0085 10.425 19.9985 10.405C19.9891 10.385 19.9761 10.3687 19.9595 10.356C19.9428 10.3433 19.9238 10.334 19.9025 10.328C19.8811 10.322 19.8591 10.319 19.8365 10.319C19.8018 10.319 19.7725 10.324 19.7485 10.334C19.7251 10.3433 19.7065 10.3557 19.6925 10.371C19.6785 10.3863 19.6688 10.4033 19.6635 10.422C19.6581 10.4407 19.6571 10.4593 19.6605 10.478C19.6645 10.5013 19.6738 10.52 19.6885 10.534C19.7031 10.548 19.7211 10.5597 19.7425 10.569C19.7638 10.5777 19.7871 10.585 19.8125 10.591C19.8385 10.5963 19.8648 10.6023 19.8915 10.609C19.9181 10.615 19.9438 10.6223 19.9685 10.631C19.9938 10.6397 20.0161 10.6513 20.0355 10.666C20.0548 10.6807 20.0701 10.6997 20.0815 10.723C20.0935 10.7457 20.0995 10.7743 20.0995 10.809C20.0995 10.8757 20.0765 10.9273 20.0305 10.964C19.9845 11.0007 19.9198 11.019 19.8365 11.019C19.7991 11.019 19.7645 11.014 19.7325 11.004C19.7005 10.9947 19.6728 10.9803 19.6495 10.961C19.6261 10.941 19.6078 10.9167 19.5945 10.888C19.5818 10.8587 19.5755 10.8243 19.5755 10.785H19.6415ZM20.1418 11.141C20.1498 11.1423 20.1578 11.1437 20.1658 11.145C20.1745 11.1463 20.1831 11.147 20.1918 11.147C20.2085 11.147 20.2221 11.1417 20.2328 11.131C20.2435 11.1203 20.2521 11.1073 20.2588 11.092C20.2661 11.0773 20.2721 11.0617 20.2768 11.045C20.2815 11.029 20.2868 11.0153 20.2928 11.004L20.0918 10.482H20.1588L20.3248 10.927L20.4908 10.482H20.5558L20.3628 10.993C20.3508 11.0257 20.3391 11.055 20.3278 11.081C20.3171 11.107 20.3055 11.129 20.2928 11.147C20.2808 11.1657 20.2671 11.1797 20.2518 11.189C20.2371 11.199 20.2195 11.204 20.1988 11.204C20.1881 11.204 20.1778 11.2033 20.1678 11.202C20.1585 11.2007 20.1498 11.199 20.1418 11.197V11.141ZM20.6108 10.838C20.6201 10.8827 20.6368 10.9143 20.6608 10.933C20.6855 10.951 20.7205 10.96 20.7658 10.96C20.7878 10.96 20.8068 10.9573 20.8228 10.952C20.8388 10.9467 20.8518 10.9397 20.8618 10.931C20.8725 10.9217 20.8805 10.9113 20.8858 10.9C20.8911 10.8887 20.8938 10.8767 20.8938 10.864C20.8938 10.8387 20.8855 10.82 20.8688 10.808C20.8528 10.7953 20.8325 10.7857 20.8078 10.779C20.7831 10.7717 20.7565 10.7657 20.7278 10.761C20.6991 10.7557 20.6725 10.748 20.6478 10.738C20.6231 10.728 20.6025 10.7137 20.5858 10.695C20.5698 10.6763 20.5618 10.65 20.5618 10.616C20.5618 10.5727 20.5775 10.5373 20.6088 10.51C20.6408 10.482 20.6858 10.468 20.7438 10.468C20.7998 10.468 20.8451 10.4807 20.8798 10.506C20.9151 10.5307 20.9365 10.5723 20.9438 10.631H20.8828C20.8775 10.591 20.8621 10.563 20.8368 10.547C20.8121 10.5303 20.7808 10.522 20.7428 10.522C20.7048 10.522 20.6758 10.5303 20.6558 10.547C20.6358 10.563 20.6258 10.5843 20.6258 10.611C20.6258 10.6343 20.6338 10.6523 20.6498 10.665C20.6665 10.677 20.6871 10.687 20.7118 10.695C20.7365 10.7023 20.7631 10.709 20.7918 10.715C20.8205 10.721 20.8471 10.7297 20.8718 10.741C20.8965 10.7517 20.9168 10.7663 20.9328 10.785C20.9495 10.8037 20.9578 10.8297 20.9578 10.863C20.9578 10.8877 20.9525 10.9097 20.9418 10.929C20.9311 10.9477 20.9165 10.9633 20.8978 10.976C20.8791 10.9887 20.8568 10.998 20.8308 11.004C20.8055 11.0107 20.7775 11.014 20.7468 11.014C20.7161 11.014 20.6888 11.0093 20.6648 11C20.6415 10.9913 20.6215 10.979 20.6048 10.963C20.5881 10.947 20.5751 10.9283 20.5658 10.907C20.5565 10.8857 20.5511 10.8627 20.5498 10.838H20.6108ZM21.1878 11.002C21.1805 11.0033 21.1708 11.0057 21.1588 11.009C21.1468 11.0123 21.1335 11.014 21.1188 11.014C21.0888 11.014 21.0658 11.0067 21.0498 10.992C21.0345 10.9767 21.0268 10.9497 21.0268 10.911V10.532H20.9538V10.482H21.0268V10.338H21.0868V10.482H21.1838V10.532H21.0868V10.887C21.0868 10.8997 21.0871 10.9107 21.0878 10.92C21.0885 10.9293 21.0905 10.937 21.0938 10.943C21.0971 10.949 21.1021 10.9533 21.1088 10.956C21.1161 10.9587 21.1261 10.96 21.1388 10.96C21.1468 10.96 21.1548 10.9593 21.1628 10.958C21.1715 10.9567 21.1798 10.955 21.1878 10.953V11.002ZM21.5891 10.705C21.5891 10.6797 21.5855 10.656 21.5781 10.634C21.5715 10.6113 21.5611 10.592 21.5471 10.576C21.5338 10.5593 21.5168 10.5463 21.4961 10.537C21.4755 10.527 21.4518 10.522 21.4251 10.522C21.3985 10.522 21.3748 10.527 21.3541 10.537C21.3341 10.547 21.3168 10.5603 21.3021 10.577C21.2881 10.5937 21.2768 10.613 21.2681 10.635C21.2595 10.657 21.2538 10.6803 21.2511 10.705H21.5891ZM21.2511 10.755C21.2511 10.783 21.2548 10.8097 21.2621 10.835C21.2695 10.8597 21.2801 10.8813 21.2941 10.9C21.3088 10.918 21.3271 10.9327 21.3491 10.944C21.3711 10.9547 21.3965 10.96 21.4251 10.96C21.4645 10.96 21.4981 10.9497 21.5261 10.929C21.5541 10.9083 21.5728 10.879 21.5821 10.841H21.6491C21.6418 10.8657 21.6321 10.8887 21.6201 10.91C21.6081 10.9307 21.5931 10.949 21.5751 10.965C21.5571 10.9803 21.5358 10.9923 21.5111 11.001C21.4865 11.0097 21.4578 11.014 21.4251 11.014C21.3838 11.014 21.3481 11.007 21.3181 10.993C21.2881 10.979 21.2635 10.96 21.2441 10.936C21.2248 10.9113 21.2105 10.8827 21.2011 10.85C21.1918 10.8167 21.1871 10.781 21.1871 10.743C21.1871 10.705 21.1925 10.6693 21.2031 10.636C21.2145 10.6027 21.2301 10.5737 21.2501 10.549C21.2708 10.5237 21.2958 10.504 21.3251 10.49C21.3545 10.4753 21.3878 10.468 21.4251 10.468C21.4965 10.468 21.5525 10.4927 21.5931 10.542C21.6338 10.5907 21.6538 10.6617 21.6531 10.755H21.2511ZM21.7518 11H21.6918V10.482H21.7518V10.56H21.7538C21.7691 10.53 21.7911 10.5073 21.8198 10.492C21.8485 10.476 21.8798 10.468 21.9138 10.468C21.9378 10.468 21.9581 10.4707 21.9748 10.476C21.9915 10.4813 22.0055 10.4887 22.0168 10.498C22.0288 10.5067 22.0385 10.517 22.0458 10.529C22.0538 10.541 22.0605 10.554 22.0658 10.568C22.0831 10.534 22.1061 10.509 22.1348 10.493C22.1641 10.4763 22.1975 10.468 22.2348 10.468C22.2701 10.468 22.2981 10.474 22.3188 10.486C22.3401 10.4973 22.3565 10.5127 22.3678 10.532C22.3791 10.5507 22.3865 10.5723 22.3898 10.597C22.3938 10.6217 22.3958 10.647 22.3958 10.673V11H22.3358V10.642C22.3358 10.6047 22.3278 10.5753 22.3118 10.554C22.2965 10.5327 22.2675 10.522 22.2248 10.522C22.2028 10.522 22.1815 10.527 22.1608 10.537C22.1408 10.5463 22.1231 10.561 22.1078 10.581C22.1011 10.5897 22.0955 10.6 22.0908 10.612C22.0868 10.6233 22.0835 10.6353 22.0808 10.648C22.0781 10.6607 22.0761 10.6733 22.0748 10.686C22.0741 10.6987 22.0738 10.7103 22.0738 10.721V11H22.0138V10.642C22.0138 10.6047 22.0058 10.5753 21.9898 10.554C21.9745 10.5327 21.9455 10.522 21.9028 10.522C21.8808 10.522 21.8595 10.527 21.8388 10.537C21.8188 10.5463 21.8011 10.561 21.7858 10.581C21.7791 10.5897 21.7735 10.6 21.7688 10.612C21.7648 10.6233 21.7615 10.6353 21.7588 10.648C21.7561 10.6607 21.7541 10.6733 21.7528 10.686C21.7521 10.6987 21.7518 10.7103 21.7518 10.721V11ZM22.4978 10.838C22.5071 10.8827 22.5238 10.9143 22.5478 10.933C22.5725 10.951 22.6075 10.96 22.6528 10.96C22.6748 10.96 22.6938 10.9573 22.7098 10.952C22.7258 10.9467 22.7388 10.9397 22.7488 10.931C22.7595 10.9217 22.7675 10.9113 22.7728 10.9C22.7781 10.8887 22.7808 10.8767 22.7808 10.864C22.7808 10.8387 22.7725 10.82 22.7558 10.808C22.7398 10.7953 22.7195 10.7857 22.6948 10.779C22.6701 10.7717 22.6435 10.7657 22.6148 10.761C22.5861 10.7557 22.5595 10.748 22.5348 10.738C22.5101 10.728 22.4895 10.7137 22.4728 10.695C22.4568 10.6763 22.4488 10.65 22.4488 10.616C22.4488 10.5727 22.4645 10.5373 22.4958 10.51C22.5278 10.482 22.5728 10.468 22.6308 10.468C22.6868 10.468 22.7321 10.4807 22.7668 10.506C22.8021 10.5307 22.8235 10.5723 22.8308 10.631H22.7698C22.7645 10.591 22.7491 10.563 22.7238 10.547C22.6991 10.5303 22.6678 10.522 22.6298 10.522C22.5918 10.522 22.5628 10.5303 22.5428 10.547C22.5228 10.563 22.5128 10.5843 22.5128 10.611C22.5128 10.6343 22.5208 10.6523 22.5368 10.665C22.5535 10.677 22.5741 10.687 22.5988 10.695C22.6235 10.7023 22.6501 10.709 22.6788 10.715C22.7075 10.721 22.7341 10.7297 22.7588 10.741C22.7835 10.7517 22.8038 10.7663 22.8198 10.785C22.8365 10.8037 22.8448 10.8297 22.8448 10.863C22.8448 10.8877 22.8395 10.9097 22.8288 10.929C22.8181 10.9477 22.8035 10.9633 22.7848 10.976C22.7661 10.9887 22.7438 10.998 22.7178 11.004C22.6925 11.0107 22.6645 11.014 22.6338 11.014C22.6031 11.014 22.5758 11.0093 22.5518 11C22.5285 10.9913 22.5085 10.979 22.4918 10.963C22.4751 10.947 22.4621 10.9283 22.4528 10.907C22.4435 10.8857 22.4381 10.8627 22.4368 10.838H22.4978Z" fill="black"/>
</g>
<defs>
<filter id="filter0_d_202_17" x="0" y="0" width="35" height="20" filterUnits="userSpaceOnUse" color-interpolation-filters="sRGB">
<feFlood flood-opacity="0" result="BackgroundImageFix"/>
<feColorMatrix in="SourceAlpha" type="matrix" values="0 0 0 0 0 0 0 0 0 0 0 0 0 0 0 0 0 0 127 0" result="hardAlpha"/>
<feOffset dy="4"/>
<feGaussianBlur stdDeviation="2"/>
<feComposite in2="hardAlpha" operator="out"/>
<feColorMatrix type="matrix" values="0 0 0 0 0 0 0 0 0 0 0 0 0 0 0 0 0 0 0.25 0"/>
<feBlend mode="normal" in2="BackgroundImageFix" result="effect1_dropShadow_202_17"/>
<feBlend mode="normal" in="SourceGraphic" in2="effect1_dropShadow_202_17" result="shape"/>
</filter>
</defs>
</svg>
